<mxfile host="app.diagrams.net" modified="2023-11-15T19:27:44.012Z" agent="Mozilla/5.0 (X11; Linux x86_64; rv:109.0) Gecko/20100101 Firefox/114.0" version="22.1.2" etag="XWO_iWxiuQwoLHSQk4gw" type="github">
  <diagram name="Page-1" id="QaF0DL0yGq9KXI9mL2Wo">
    <mxGraphModel>
      <root>
        <mxCell id="0" />
        <mxCell id="1" parent="0" />
      </root>
    </mxGraphModel>
  </diagram>
</mxfile>
